# xmcd CD database file
#
# Track frame offsets:
#	150
#	11035
#	36678
#	49093
#	60360
#	85086
#	97636
#	112660
#	125708
#	140423
#	155195
#	170458
#	192414
#	204732
#	216650
#
# Disc length: 3021 seconds
#
# Revision: 0
# Processed by: cddbd v1.4PL0 Copyright (c) Steve Scherf et al.
# Submitted via: CDex 1.50beta9
#
DISCID=d80bcb0f
DTITLE=Various Artist - Nothin' But The Blues CD1
DYEAR=2001
DGENRE=Blues
TTITLE0=Stevie Ray Vaughan - Love Struck Baby
TTITLE1=The Jeff Healey Band - Blue Jean Blues
TTITLE2=Johnny Winter - Good Morning Little School Girl
TTITLE3=John Lee Hooker - Boom Boom
TTITLE4=Eric Clapton and The Yardbirds - Smokestack Lightning
TTITLE5=Muddy Waters - I Got My Mojo Working
TTITLE6=Robert Cray - Sleeping In The Ground
TTITLE7=Robert Johnson - Ramblin On My Mind
TTITLE8=Chicken Shack - I'd Rather Go Blind
TTITLE9=T-Bone Walker - I Got A Break Baby
TTITLE10=Lightning Hopkins - Big Car Blues
TTITLE11=John Mayall - All Your Love
TTITLE12=Eric Clapton - Howlin Wolf - Highway 49
TTITLE13=Buddy Guy - My Love Is Real
TTITLE14=John Lee Hooker - Dimples
EXTD=YEAR: 2001
EXTT0=
EXTT1=
EXTT2=
EXTT3=
EXTT4=
EXTT5=
EXTT6=
EXTT7=
EXTT8=
EXTT9=
EXTT10=
EXTT11=
EXTT12=
EXTT13=
EXTT14=
PLAYORDER=
